# xmcd
#
# Track frame offsets:
# 150
# 13234
# 26303
# 39158
# 52793
# 67913
# 79206
# 94188
# 106614
# 125974
#
# Disc length: 1862 seconds
#
# Revision: 0
# Processed by: cddbd v1.5.2PL0 Copyright (c) Steve Scherf et al.
# Submitted via: Audion 3.0.2 (http://www.panic.com/audion/)
#
DISCID=7107440a
DTITLE=Frank Sinatra  - Some Nice Things I've Missed
DYEAR=1900
DGENRE=
TTITLE0=You Turned My World Around	
TTITLE1=Sweet Caroline
TTITLE2=The Summer Knows
TTITLE3=I'm Gonna Make It All The Way
TTITLE4=Tie A Yellow Ribbon Round The Ole Oak Tree
TTITLE5=Satisfy Me One More Time
TTITLE6=If
TTITLE7=You Are The Sunshine Of My Life
TTITLE8=What Are You Doing The Rest Of Your Life?
TTITLE9=Bad, Bad Leroy Brown
EXTD=
EXTT0=
EXTT1=
EXTT2=
EXTT3=
EXTT4=
EXTT5=
EXTT6=
EXTT7=
EXTT8=
EXTT9=
PLAYORDER=
